<svg xmlns="http://www.w3.org/2000/svg" width="30" height="30" viewBox="0 0 30 30">
  <g id="iconCari" transform="translate(-2 -1022.36)">
    <path id="circle11546" d="M11.632,1022.36a9.6,9.6,0,0,0-6.811,2.819h0a9.632,9.632,0,0,0,12.271,14.746l1.639,1.636a2.332,2.332,0,0,0,.674,1.532l8.578,8.58a2.356,2.356,0,0,0,3.334-3.331l-8.578-8.578a2.342,2.342,0,0,0-1.534-.676l-1.639-1.636a9.626,9.626,0,0,0-7.931-15.092Zm0,1.065a8.567,8.567,0,1,1-6.058,2.511h0a8.538,8.538,0,0,1,6.056-2.511Zm.322,1.366q-.325-.016-.651,0a7.207,7.207,0,1,0,7.381,8.686.536.536,0,1,0-1.048-.22,6.136,6.136,0,1,1-2.1-6.006.536.536,0,1,0,.68-.827,7.183,7.183,0,0,0-4.258-1.636Zm5.585,3.649a.536.536,0,0,0-.429.785,6.112,6.112,0,0,1,.573,1.747.536.536,0,1,0,1.057-.176,7.191,7.191,0,0,0-.674-2.055.536.536,0,0,0-.473-.3h-.055Zm1.36,9.862,1.061,1.061a2.293,2.293,0,0,0-.557.4h0a2.31,2.31,0,0,0-.4.559l-1.061-1.059c.171-.148.342-.294.5-.456s.307-.333.454-.5Zm2.168,1.835a1.283,1.283,0,0,1,.908.383l.05.05-1.816,1.814-.05-.05a1.289,1.289,0,0,1,.908-2.2Zm1.716,1.191,6.964,6.964-1.814,1.816-6.966-6.966,1.816-1.814Zm7.722,7.722.048.048a1.284,1.284,0,0,1-1.816,1.814l-.046-.046,1.814-1.816Z" transform="translate(0 0)" fill="#f05e23"/>
  </g>
</svg>
